Coordinates
version=1
nRows=13
nColumns=40
inDegrees=yes

Units are S.I. units (second, meters, Newtons, ...)
Angles are in degrees.

endheader
time	pelvis_tilt	pelvis_list	pelvis_rotation	pelvis_tx	pelvis_ty	pelvis_tz	hip_flexion_r	hip_adduction_r	hip_rotation_r	knee_angle_r	knee_angle_r_beta	ankle_angle_r	subtalar_angle_r	mtp_angle_r	hip_flexion_l	hip_adduction_l	hip_rotation_l	knee_angle_l	knee_angle_l_beta	ankle_angle_l	subtalar_angle_l	mtp_angle_l	lumbar_extension	lumbar_bending	lumbar_rotation	arm_flex_r	arm_add_r	arm_rot_r	elbow_flex_r	pro_sup_r	wrist_flex_r	wrist_dev_r	arm_flex_l	arm_add_l	arm_rot_l	elbow_flex_l	pro_sup_l	wrist_flex_l	wrist_dev_l
      9.58000000	     -5.99649685	     -4.58953371	      9.44087079	      0.96461785	      0.92189844	      0.45129311	     -0.59345426	      1.63722917	    -18.36425714	     16.80400591	     16.80400591	     16.57025404	     -3.46939162	     -2.50515492	     27.09390228	     -4.57967551	      4.87694585	     24.30101852	     24.30101852	      7.60775065	     -6.30364614	      0.48461755	     -7.27807300	      2.24498856	      5.36933681	     58.48819512	    -18.50872276	     -2.53011669	     81.67711501	     44.75002975	      0.00000000	      0.00000000	    -11.96932169	    -14.38189925	     21.22954076	     32.83419377	     43.62327310	      0.00000000	      0.00000000
      9.60342857	     -6.09949637	     -4.57343557	      8.77287107	      0.96644054	      0.92276217	      0.44668313	     -0.88414994	      1.20197003	    -18.04594157	     16.86503034	     16.86503034	     16.16773214	     -3.00866504	     -2.61750785	     26.63981244	     -4.46937545	      4.47089843	     24.40461348	     24.40461348	      8.02076754	     -6.76947452	      0.58892072	     -7.19601989	      2.33018424	      5.34020352	     57.61800363	    -18.28761052	     -2.42676400	     80.90334366	     44.77126265	      0.00000000	      0.00000000	    -11.17026958	    -14.67116785	     20.99330971	     33.01704733	     43.67580076	      0.00000000	      0.00000000
      9.62685714	     -6.18131052	     -4.44491094	      8.11155879	      0.96811551	      0.92378215	      0.44190509	     -1.26718667	      0.55828780	    -18.19456590	     16.81449776	     16.81449776	     15.57873204	     -1.80352915	     -3.52125913	     26.01480080	     -4.15467374	      4.27845766	     24.27289412	     24.27289412	      8.45869791	     -7.57247033	      1.47417473	     -7.08506205	      2.26603354	      5.55897596	     56.92776435	    -18.41844666	     -2.79652383	     78.19209200	     44.88183142	      0.00000000	      0.00000000	    -10.02763613	    -14.87392583	     20.21213765	     33.10217509	     43.84157044	      0.00000000	      0.00000000
      9.65028571	     -6.26900361	     -4.46061058	      7.46447239	      0.96966042	      0.92449843	      0.43731709	     -1.54595234	      0.15556394	    -17.83433523	     16.84054505	     16.84054505	     15.19359101	     -1.38015226	     -3.59832572	     25.60319400	     -4.05248586	      3.86525548	     24.41121702	     24.41121702	      8.75661346	     -8.01540824	      1.53665695	     -7.04386265	      2.45643160	      5.34587984	     55.59726642	    -18.05342242	     -2.62972626	     77.39237704	     44.89843282	      0.00000000	      0.00000000	     -9.01482213	    -15.15021846	     19.98480310	     33.32452522	     43.89194623	      0.00000000	      0.00000000
      9.67371429	     -6.36116860	     -4.33554612	      6.83988936	      0.97114849	      0.92526110	      0.43251526	     -1.99159880	     -0.44899922	    -17.89881793	     16.56304100	     16.56304100	     14.66245048	     -0.21844515	     -4.18307338	     25.04393052	     -3.70663089	      3.66844011	     24.30403801	     24.30403801	      9.03091919	     -8.84682742	      2.16890511	     -6.91104354	      2.41435364	      5.67678740	     54.04340474	    -18.57038091	     -3.08653209	     74.49941675	     45.00913724	      0.00000000	      0.00000000	     -7.62386113	    -15.32140384	     19.34067607	     33.46741439	     44.02098905	      0.00000000	      0.00000000
      9.69714286	     -6.39587193	     -4.30027038	      6.21057525	      0.97228422	      0.92569031	      0.42773456	     -2.34902450	     -1.02750151	    -18.08213891	     16.50740856	     16.50740856	     14.09947090	      1.10580526	     -5.30164056	     24.63452953	     -3.40679327	      3.66315917	     24.52467205	     24.52467205	      9.47341675	     -9.88698590	      3.07582452	     -6.88403474	      2.64274059	      5.73320950	     52.86071253	    -18.21523534	     -3.64875556	     71.04772626	     45.14638533	      0.00000000	      0.00000000	     -5.94566450	    -15.23222990	     18.42433170	     33.20542480	     44.20852664	      0.00000000	      0.00000000
      9.72057143	     -6.44803717	     -4.25888332	      5.60075928	      0.97327544	      0.92578091	      0.42300506	     -2.67784438	     -1.56394121	    -17.99859641	     16.38271722	     16.38271722	     13.28365899	      1.84088046	     -7.16635374	     24.41915663	     -3.13519406	      3.49181182	     25.05394562	     25.05394562	     10.31406497	    -10.55208331	      4.55349149	     -6.83406388	      2.86259824	      4.97421818	     51.71625218	    -16.86582200	     -4.28688840	     66.79137500	     45.31980728	      0.00000000	      0.00000000	     -4.55116734	    -14.88072565	     16.30167552	     32.28674840	     44.61523400	      0.00000000	      0.00000000
      9.74400000	     -6.47507121	     -4.30616372	      4.95936215	      0.97410357	      0.92556315	      0.41840274	     -2.88836367	     -2.01828788	    -17.71701663	     16.52179469	     16.52179469	     13.04025681	      2.50672339	     -7.43777561	     24.22302317	     -2.97086513	      3.32273655	     25.58666861	     25.58666861	     10.70898075	    -11.36283657	      4.70565721	     -6.89073686	      3.17731387	      5.32443578	     49.30223416	    -17.27060608	     -4.43077893	     64.44189074	     45.39597723	      0.00000000	      0.00000000	     -2.71501490	    -14.91605482	     15.79097122	     32.88098049	     44.72747004	      0.00000000	      0.00000000
      9.76742857	     -6.45364145	     -4.31235031	      4.31217312	      0.97471455	      0.92501417	      0.41381125	     -3.01190677	     -2.57988045	    -17.49804081	     16.88716877	     16.88716877	     12.58435904	      3.07680165	     -8.81761720	     24.11972715	     -2.74049575	      3.20732911	     26.40961684	     26.40961684	     11.69624427	    -12.12456369	      6.11923667	     -6.95330424	      3.50761263	      5.03283071	     47.61468330	    -16.36994127	     -5.39892392	     59.74995958	     45.58052050	      0.00000000	      0.00000000	     -0.78456855	    -14.54382639	     13.95344535	     32.26664570	     45.11645315	      0.00000000	      0.00000000
      9.79085714	     -6.43867992	     -4.35349882	      3.64494006	      0.97510143	      0.92399625	      0.40930611	     -2.83417415	     -3.17919057	    -17.13907732	     17.82089437	     17.82089437	     12.56985670	      3.44508543	     -9.30482697	     24.08272074	     -2.55679848	      3.07094586	     27.26649512	     27.26649512	     12.21986799	    -13.03676159	      6.09591624	     -7.10619788	      3.85107508	      5.34279547	     44.81051856	    -16.60743318	     -5.57562856	     57.01130544	     45.66850142	      0.00000000	      0.00000000	      1.37084337	    -14.44341569	     13.79276183	     32.79725040	     45.18037220	      0.00000000	      0.00000000
      9.81428571	     -6.11714071	     -4.48785960	      3.02377011	      0.97567981	      0.92322525	      0.40496511	     -3.03116395	     -3.59157092	    -16.66695928	     18.65022940	     18.65022940	     12.51044025	      3.56788804	     -9.58083157	     23.68069416	     -2.52765995	      2.87455453	     28.05381265	     28.05381265	     12.80767505	    -13.70561999	      5.89275447	     -7.66927666	      4.36421183	      4.71850260	     41.80284181	    -15.74836056	     -5.35926485	     55.48782142	     45.69661908	      0.00000000	      0.00000000	      3.10176149	    -14.51607015	     13.72196076	     33.26809443	     45.21733619	      0.00000000	      0.00000000
      9.83771429	     -6.18036710	     -4.42112276	      2.26588942	      0.97544374	      0.92122167	      0.40069640	     -2.00019140	     -4.46546381	    -15.84942722	     20.90866511	     20.90866511	     12.04132480	      2.63084477	    -12.18143427	     23.99102968	     -2.20687159	      2.75317386	     29.38974491	     29.38974491	     14.01455302	    -14.66369975	      7.23945230	     -7.55656345	      4.55879599	      5.43289145	     40.10149093	    -15.64927712	     -7.47686663	     47.38653461	     46.05758220	      0.00000000	      0.00000000	      6.53438350	    -13.97756013	     14.56278379	     31.43784786	     45.18606126	      0.00000000	      0.00000000
      9.86114286	     -6.10553762	     -4.45476173	      1.55765796	      0.97526113	      0.91919501	      0.39671080	     -0.91945750	     -5.16596788	    -14.84473242	     23.50310870	     23.50310870	     11.52064637	      1.20656474	    -14.49791265	     24.15687331	     -2.09334223	      2.42805466	     30.69282675	     30.69282675	     15.19394500	    -15.11596845	      7.99798676	     -7.77105695	      4.88732444	      5.35335604	     37.38104237	    -14.95952275	     -8.99297482	     43.03769848	     46.25046395	      0.00000000	      0.00000000	      8.93969318	    -13.91463741	     15.19880283	     31.47482191	     45.16372752	      0.00000000	      0.00000000
